<svg xmlns="http://www.w3.org/2000/svg" viewBox="0 0 3002.01 1401.19"><defs/><path fill="#390838" d="M1501.76 1403.44H8.26c-1.75 0-3.52-.11-5.25.03-1.31.11-1.67-.23-1.54-1.54.14-1.48.03-3 .03-4.5V7.51c0-1.5.11-3.02-.03-4.5C1.34 1.7 1.7 1.36 3 1.47c1.74.14 3.5.03 5.25.03h2988.5c1.75 0 3.51.11 5.25-.03 1.3-.11 1.67.22 1.54 1.53-.15 1.49-.03 3-.03 4.5v1389.93c0 1.5-.12 3.01.03 4.5.13 1.3-.22 1.64-1.53 1.55-2-.15-4-.04-6-.04H1501.75z"/><path fill="#FFF" d="M1777.9 984.22h-313.7c-7.52.01-15.04-.29-22.27-2.48-19.7-5.99-31.62-19.12-35.75-39.36-2.47-12.12.12-23.29 5.84-33.95.95-1.76 2-3.46 2.98-5.2.05-.1-.17-.39-.33-.51-.17-.14-.47-.33-.6-.27-.9.41-1.82.81-2.64 1.35a102.48 102.48 0 01-42.54 15.68c-15.97 2.12-31.35-.02-45.83-7.65-20.97-11.05-34.58-28.26-42.78-50.15-.79-2.1-1.48-4.24-2.34-6.32-.44-1.08-1.4-1.42-2.36-.63a998.84 998.84 0 00-13.25 11.05c-16.2 13.78-32.22 27.74-47.65 42.38a516.93 516.93 0 01-17.3 15.54c-9.39 8.13-19.79 14.52-32.14 16.94-30.25 5.91-56.4-2.24-78.42-23.6-13.18-12.78-21.05-28.55-23.65-46.66-2.82-19.54.9-37.94 12.46-54.2 10.71-15.08 21.89-29.84 32.9-44.72 23.06-31.15 46.15-62.28 69.23-93.42.9-1.2 1.76-2.43 2.66-3.64.6-.81 1.21-1.74.67-2.7-.7-1.22-1.69-.4-2.52-.01-1.81.85-3.61 1.73-5.4 2.61a1319.96 1319.96 0 00-128.92 73.48c-36.37 23.49-71.7 48.4-105.34 75.7-25.85 20.98-50.86 42.89-73.26 67.62-11.26 12.44-21.86 25.4-31.38 39.22-6.44 9.34-13.93 17.63-22.97 24.54-18.13 13.87-38.65 20.9-61.4 20.27-42.25-1.17-74.16-30.13-82.69-65.29a68.76 68.76 0 01-1.4-26.77c.86-5.68 1.63-11.36 3.2-16.9.2-.73.38-1.48.4-2.22.02-.7-.03-1.5-.34-2.09-.45-.83-1.33-.4-1.93-.15-1.85.77-3.64 1.66-5.46 2.49-26.57 12.2-52.46 25.77-78.57 38.91-12.72 6.4-25.65 12.37-39.21 16.82-10.95 3.59-22.15 6.45-33.66 6.99-26.59 1.25-49.66-6.71-65.39-29.22-14.5-20.75-16.55-43.43-6.66-66.94 4.52-10.73 11.13-20.07 19.13-28.48 11.1-11.7 23.9-21.24 37.6-29.62a330.61 330.61 0 0128.33-15.37c39.8-19.27 79.99-37.69 121.13-53.96 41.13-16.27 82.75-31.12 125.24-43.42 12.95-3.75 25.93-7.45 38.98-10.82a85.31 85.31 0 0148.78 1.67c4.26 1.4 8.44 3.1 12.56 4.88a11.96 11.96 0 008.57.69c9.73-2.67 18.85-6.4 27.33-11.95a1658.22 1658.22 0 01161.02-92.8c81.98-41.38 166.34-76.93 254.37-103.4a984.04 984.04 0 0148.33-13.46c28.82-7.08 55.18-1.22 78.14 17.54 20.75 16.95 31.42 39.1 30.9 66.17-.23 12.47-4.13 24.07-9.48 35.19a180.13 180.13 0 01-18.9 30.57c-.44.59-1.02 1.09-1.4 1.72-.22.38-.31.97-.2 1.4.2.8.93 1.02 1.69 1.06.5.02 1.04.14 1.5 0 6.76-2.2 13.8-1.8 20.72-1.9 6.16-.1 10.81-2.07 15.22-6.41 8.3-8.19 18.41-13.48 29.5-17.24 45.5-15.4 91.9-27.31 139.1-36.18 23.58-4.44 47.28-8.11 71.04-11.44a515.78 515.78 0 0123.07-2.77c3.55-.34 5.81-1.87 7.82-4.77 14.92-21.6 30.2-42.95 44.5-64.99 3.12-4.82 6.22-9.67 9.56-14.35 6.94-9.7 15.42-17.68 26.3-22.9 15.34-7.37 31.3-8.33 47.5-3.95 24.38 6.6 42.84 21.1 55.25 43.05 8 14.13 10.62 29.5 9.07 45.61a94.15 94.15 0 01-2.8 15.48c-.33 1.23.32 2.02 1.3 2.25 1.7.41 3.45.65 5.19.76 9.73.65 19.4 1.75 29.08 3.02a568.99 568.99 0 0161.11 11.45c7.03 1.72 14.06 3.5 21 5.54 24.38 7.16 42.35 22.11 53.3 45.04 12.53 26.24 8.05 58.18-11.83 80.56-15.44 17.38-35 26.08-57.97 27.59-4.74.31-9.48.88-14.23.21a4.6 4.6 0 00-4.58 1.94c-2.51 3.38-6.03 6-7.52 10.13 2.55 2.74 5.09 5.49 7.65 8.22.68.73 1.39 1.45 2.14 2.1.79.7 1.7.94 2.76.6 2.84-.94 5.73-1.75 8.55-2.74 7.66-2.67 15.66-3.41 23.64-3.6 7.24-.16 14.46 1.12 21.44 3.09 3.25.91 5.66.3 8.36-1.49 10.62-7.08 21.75-13.26 33.62-18.05 15.63-6.32 31.87-8.39 48.54-6.65 10.05 1.05 19.35 4.77 28.11 9.8a146.91 146.91 0 0115.5 10.52c1.65 1.24 2.54 1.06 3.72-.62 2.01-2.87 3.86-5.85 5.93-8.66 5.6-7.59 12.35-13.72 21.33-17.14 11.2-4.27 22.44-4.3 33.78-.7a55.48 55.48 0 0115.49 7.45c12.83 9.13 25.72 18.2 37.59 28.6a94.34 94.34 0 0117.26 19.67c2.06 3.17 2.17 3.2 6.03 1.82 13.17-4.72 26.3-9.54 39.47-14.22 29.42-10.46 58.87-20.8 88.26-31.31 7.62-2.72 15.43-4.57 23.43-4.6 16.64-.06 31.47 5.28 43.65 16.88 13.37 12.74 20.17 28.53 19.62 46.98-.65 21.68-10.11 38.87-28.39 50.83a94.37 94.37 0 01-13.87 7.39c-74.16 32.4-148.6 64.1-225.03 90.87-20.02 7.02-40.12 13.82-60.62 19.37-19.32 5.24-38.87 9.36-58.82 11.02-12.7 1.06-25.48 1.51-38.17-.56-1.23-.2-2.5-.22-3.74-.25-1.17-.03-1.87.6-1.85 1.78.02 1.74.2 3.49.25 5.24.11 3.5.34 7 .23 10.5-.58 19.8-13.16 37.08-31.76 44.15-6.41 2.44-13.02 3.42-19.78 3.74-2.75.13-5.5.04-8.25.04h-310.7l.01.05z"/><path fill="#3A0839" d="M1884.82 567.37c15.78.14 31.51 1.08 47.24 1.98a546.2 546.2 0 0167.69 8.1c10.81 2 21.68 3.71 32.3 6.55 6.28 1.67 12.43 3.77 18.64 5.67a17.62 17.62 0 0111.02 9.52c2.61 5.33 1.73 10.16-2.44 14.42-5.37 5.48-12.1 6.73-19.34 5.83-2.94-.37-5.84-1.33-8.68-2.27a404.26 404.26 0 00-55.85-14.26 623.4 623.4 0 00-33.32-5.06 644.06 644.06 0 00-33.58-3.19c-31.22-2.2-62.47-2.12-93.74-1.44-2.95.07-5.18.71-7.13 3.14-35.82 44.69-73.07 88.24-106.48 134.82-13.55 18.9-26.64 38.12-38.4 58.2-.88 1.51-1.68 3.07-2.55 4.59-.32.57-.28 1.03.33 1.24.4.13.97.22 1.31.04 1.76-.95 3.48-1.98 5.2-3 23.64-14.04 47.24-28.14 70.92-42.11 18.3-10.8 36.89-21.09 55.78-30.81 4.9-2.52 9.93-4.68 15.47-5.45 3.7-.52 7 .35 9.86 2.56 3.19 2.47 5.54 5.75 7.75 9.1.6.92.37 1.92-.4 2.7-1.24 1.24-2.54 2.41-3.79 3.64-20.2 19.87-38.94 40.98-54.03 65.09-3.57 5.7-6.7 11.7-10 17.58-.2.33-.25 1.03-.04 1.22.3.28.94.47 1.33.35 7.4-2.28 14.75-4.62 21.84-7.82 23.24-10.5 45.8-22.36 68.25-34.43a1054.06 1054.06 0 0151.48-26.1c11.31-5.3 22.95-9.84 35.12-12.9 11.13-2.78 22.2-3.37 33.18.67 7.18 2.64 13.5 6.47 17.95 12.93 5.22 7.55 5.73 15.25 1.02 23.2a83.62 83.62 0 01-12.42 15.94c-7.9 8.04-16.37 15.44-24.9 22.8-2.46 2.12-4.87 4.3-7.3 6.46-.42.38-.37.8.12 1.24.37.33.7.7 1.1 1 .73.54 1.33-.08 2-.27 10.14-2.9 19.66-7.35 28.98-12.12 14.23-7.29 28.21-15.07 42.31-22.61 11.24-6.01 22.45-12.07 33.78-17.9 3.53-1.83 7.43-2.9 11.1-4.47 3.18-1.35 5.84-.51 8.33 1.53.39.32.77.65 1.1 1.02 6.99 7.76 7.37 5.05.4 12.47-8.4 8.92-17.24 17.43-24.54 27.34-.15.19-.48.28-.56.48-.27.66-.8 1.48-.6 2 .38 1.05 1.57.9 2.53 1 1.6.18 2.87-.65 4.24-1.25 7.35-3.21 14.29-7.16 20.96-11.6 8.97-5.95 17.48-12.52 25.86-19.27 11.89-9.56 23.82-19.07 36.82-27.13 6.16-3.82 12.48-7.4 19.48-9.48a44.87 44.87 0 018.05-1.65c10.69-1.16 21.71 8 22.83 20.22.38 4.19-.76 7.95-3.19 11.29-2.8 3.84-5.74 7.57-8.64 11.33-3.67 4.76-7.45 9.42-11.02 14.25a74.18 74.18 0 00-10.68 19.7c-.99 2.84-1.87 5.74-1.89 8.75-.03 9.25 4.8 13.62 11.92 14.72a64 64 0 0010.47.54c11.79-.13 23.35-2.34 34.9-4.33 51.33-8.86 101.2-23.24 150.3-40.37 36.54-12.76 72.96-25.87 109.43-38.81 4.48-1.59 8.99-3.07 13.44-4.71 1.69-.62 3.34-1.03 5.11-.72.41.07.77.4 1.16.62-.28.39-.47.94-.85 1.13-1.78.9-3.58 1.77-5.42 2.55-26.46 11.17-52.85 22.53-79.41 33.44-39.5 16.22-79.31 31.7-119.64 45.78a735.01 735.01 0 01-54.36 16.86c-16.21 4.29-32.68 7.35-49.4 8.52-11.8.82-23.47-.54-34.53-5.23-.69-.3-1.41-.51-2.08-.84-17.33-8.47-20.84-18.64-20.7-33.25a62.19 62.19 0 013-18.44c1.98-6.18 4.18-12.3 6.22-18.46.21-.63.27-1.56-.05-2.06-.55-.88-1.26-.1-1.76.29-1.78 1.37-3.52 2.8-5.26 4.23-17.16 14.18-34.22 28.47-52.72 40.93a186.14 186.14 0 01-24.68 14.18 38.65 38.65 0 01-17.36 3.93c-1.49-.02-3-.15-4.45-.47-7.77-1.73-11.08-6.31-9.84-14.09.59-3.68 1.68-7.3 2.84-10.86.84-2.6 2.14-5.06 3.26-7.57.82-1.82 1.73-3.6 2.51-5.44.35-.84 1.32-1.7.67-2.64-.78-1.11-1.82-.26-2.68.1-2.3.96-4.58 1.98-6.86 3-31 13.94-62.73 26.07-94.66 37.64-15.03 5.45-30.64 9-46.07 13.13-14.2 3.8-28.23-9.44-28.24-22.47 0-3.28.3-6.45 1.38-9.59a85.7 85.7 0 017.65-16.25c3.86-6.43 7.9-12.76 11.83-19.14 1.18-1.9 2.28-3.86 3.38-5.81.1-.19.09-.51 0-.72-.28-.64-.64-.63-1.17-.32-3.66 2.16-7.46 4.1-10.98 6.45-10.19 6.8-20.32 13.7-30.37 20.7-16.43 11.42-32.98 22.62-50.99 31.5-6.08 3-12.4 5.14-19.04 6.6-10.42 2.3-19.8-.2-28.71-5.42a23.47 23.47 0 01-6.63-6.03c-4.3-5.57-5.61-11.53-2.44-18.18 2.48-5.22 5.58-10.04 8.84-14.78 8.53-12.36 17.91-24.07 27.08-35.95 1.68-2.17 3.3-4.4 4.84-6.67.41-.6.3-1.47-.51-1.86-.4-.2-1.08-.33-1.4-.13a73.05 73.05 0 00-4.93 3.39c-18.21 13.65-36.37 27.37-54.62 40.96a1029.94 1029.94 0 01-53.03 36.7c-6.07 3.96-12.37 7.5-19.53 9.31-3.78.96-7.4 1.03-11.05-.23-6.79-2.34-12.58-6.11-16.65-12.16-3.99-5.93-4.5-11.96-.4-18.2 5.38-8.16 11.41-15.8 17.43-23.48 5.87-7.48 11.67-15 17.48-22.52.75-.97 1.6-1.9 1.62-3.29.01-.63-.82-1.58-1.4-1.32-1.36.58-2.78 1.1-4 1.91-8.56 5.64-17.1 11.3-25.6 17.05-9.1 6.16-18.14 12.43-27.25 18.61a357.04 357.04 0 01-42.78 24.8 49.03 49.03 0 01-23.9 5.23c-4.99-.19-9.95-.5-14.92-1.2-11.04-1.56-23.32-15.15-18.76-30.83a82.65 82.65 0 018.47-19.14c2.68-4.51 5.52-8.93 8.26-13.4a36.89 36.89 0 002.18-3.92c.3-.66.17-1.53-.58-1.94-.38-.2-1.05-.3-1.37-.1a76.69 76.69 0 00-5.54 3.81 4050.94 4050.94 0 00-21.9 17.07c-24.8 19.44-49.43 39.08-75.17 57.29a128.69 128.69 0 01-20.7 12.06c-3.43 1.58-6.99 2.52-10.74 3.08-3.4.5-6.4-.15-9.38-1.62-10.75-5.3-15.3-18.89-10.8-29.5.98-2.29 2.31-4.43 3.6-6.56 17.16-28.24 36-55.32 56.07-81.55 11.4-14.9 22.88-29.73 34.3-44.6.9-1.16 2.68-2.55 1.88-3.8-1.3-1.98-3.16-.2-4.65.41a727.39 727.39 0 00-74.3 35.6c-50.83 27.89-98.05 60.97-142.34 98.3-15.7 13.23-30.71 27.2-45.7 41.2-4.39 4.11-9.1 7.8-13.83 11.5-4.18 3.27-8.87 3.65-13.51 2.52-7.76-1.88-13.28-6.82-16.1-14.39-1.53-4.15-1.49-8.39.93-12.29 2.24-3.6 4.47-7.24 7-10.64 28.12-38 56.26-75.97 84.48-113.89 40.75-54.77 81.51-109.55 123.35-163.51 8.12-10.48 16.34-20.87 24.51-31.31a111.7 111.7 0 003.58-4.81c.21-.3.26-1.03.05-1.24-.3-.32-.9-.5-1.36-.47-.98.07-2 .2-2.93.5-4.76 1.49-9.6 2.82-14.25 4.61-55.72 21.43-111.06 43.76-165.72 67.81-50.67 22.3-98.87 49.14-146.14 77.78a1328.45 1328.45 0 00-128.98 88.97c-32.8 25.6-63.76 53.2-91.74 84.05-9.25 10.2-18.1 20.7-26.08 31.95-5.06 7.14-10.45 14.04-16.65 20.27-7.1 7.13-15.67 10.54-25.72 9.92a25.98 25.98 0 01-16.76-7.47 17.44 17.44 0 01-5.56-12.69c-.1-4.33.84-8.45 2.27-12.46 1.76-4.95 3.87-9.74 6.32-14.4 17.6-33.44 37.18-65.7 57.36-97.6 4.82-7.6 9.68-15.18 14.5-22.78.54-.84 1-1.74 1.36-2.66.06-.13-.58-.8-.83-.76-.97.14-1.92.44-2.87.72-29.53 8.56-58.51 18.7-87.18 29.78-49.91 19.32-98.29 42.01-146.09 66a1398.63 1398.63 0 01-35.02 17.07c-8.15 3.81-16.58 6.97-25.56 8.3-4.71.7-9.44 1.07-14.1-.46-2.16-.71-2.73-1.56-2.87-3.78-.21-3.17.97-5.87 2.68-8.4 3.25-4.8 7.24-8.9 11.72-12.57 10.5-8.6 21.9-15.82 34.06-21.76 27.37-13.4 55-26.27 82.92-38.49a1348.1 1348.1 0 01180.55-64.27c5.78-1.6 11.54-3.28 17.38-4.61 10.47-2.38 19.34.84 26.3 8.78 4.62 5.28 5.7 11.57 3.07 18.25a93.17 93.17 0 01-11.62 20.92c-5.6 7.67-11.42 15.19-17.15 22.77-1.65 2.19-3.38 4.33-4.98 6.56-.6.85.2 1.38.87 1.52a4.36 4.36 0 004.1-1.22c3.12-2.9 6.33-5.69 9.5-8.51 11.04-9.8 22.06-19.62 33.12-29.39 13.7-12.11 28.56-22.72 43.6-33.07 66.85-46 136.89-86.49 209.97-121.78 58.32-28.16 117.87-53.29 179.25-74.02 26.74-9.03 53.82-16.94 81.05-24.36 5.9-1.61 11.8-2.4 17.71-.41 8.6 2.89 14.71 8.25 16.7 17.54a10.4 10.4 0 01-.02 4.39c-.88 4.47-2.69 8.57-4.74 12.58-2.97 5.8-6.68 11.13-10.5 16.4-16.17 22.26-33.03 44-50.12 65.55-38.85 49-77.93 97.8-116.85 146.74-4.2 5.28-8.02 10.85-11.96 16.33-.32.44-1.2 1.2-.35 1.74.43.27 1.38-.04 2-.32 8.61-4 17-8.46 25.14-13.35 24.85-14.94 49.65-29.96 74.55-44.82 30.05-17.93 60.23-35.64 91.62-51.16 11.64-5.76 23.41-11.26 35.89-15.07 6-1.83 12.1-3.31 18.35-3.48 11.23-.3 20.45 3.82 27 13.3 1.76 2.54 1.93 4.93.76 7.73a38.88 38.88 0 01-5.62 9.68c-4.9 6.01-9.75 12.06-14.8 17.95-22.77 26.6-44.65 53.93-66.28 81.47-6.18 7.87-12.48 15.63-17.69 24.21-1.04 1.7-2.1 3.4-3.07 5.15-.3.57-.61 1.42-.4 1.93.37.93 1.3.47 1.92.17 5.4-2.59 10.86-5.1 16.18-7.85 16-8.27 31.37-17.63 46.87-26.77a2914.88 2914.88 0 0081.9-50.04c13.83-8.78 28.94-13.48 45.07-15 9.93-.93 19.4 1 27.93 6.55 4.06 2.64 7.3 6 9.83 10.13 2.95 4.82 3.54 9.87 1.72 15.1-1.31 3.77-3.04 7.39-4.62 11.06-.31.72-.6 1.57.1 1.98.43.25 1.33-.05 1.9-.34 12.22-6.28 24.41-12.63 36.64-18.88a61.97 61.97 0 0020.62-17.12c10.37-13.16 20.69-26.36 31-39.56 20.64-26.4 41.26-52.83 61.88-79.25.76-.97 1.46-2 2.13-3.05.38-.6.12-1.03-.6-1-2.98.1-5.99.08-8.96.39-11.67 1.2-23.33 2.6-35.01 3.76-16.42 1.62-32.72 4.14-49 6.69a900.88 900.88 0 00-65.38 13c-17.04 3.97-33.83 8.83-50.55 13.92-.72.21-1.4.54-2.1.8-1.66.65-1.93 1.55-.63 2.5 2.83 2.04 5.65 4.13 8.63 5.96 6.17 3.8 12.44 7.43 18.67 11.14 1.05.63 2.31 1.06 2.77 2.36.16.45.28 1.05.1 1.43-.18.37-.74.7-1.17.77-.73.12-1.63.27-2.22-.04-4.11-2.15-8.66-2.07-13.06-2.63-11.16-1.42-22.25-3.17-33.12-6.12a86.65 86.65 0 01-5.02-1.5c-7.77-2.63-10.7-9.1-7.5-16.63 1.85-4.33 4.91-7.5 9.45-9.07 5.66-1.97 11.31-3.98 17-5.85 31.83-10.5 64.26-18.67 97.04-25.56 25.44-5.34 51.07-9.61 76.82-13.05 19.32-2.57 38.65-5.17 58.11-6.51 3.32-.23 5.47-1.59 7.42-4.21a1809.53 1809.53 0 0039.6-55.6c10.46-15.27 20.9-30.55 31.37-45.8 3.43-5 4.92-5.5 10.58-3.37a25.88 25.88 0 019.9 6.6c5.02 5.38 6.78 11.43 4.19 18.62a77.21 77.21 0 01-8.14 15.99c-9.3 14.28-20 27.5-30.6 40.79-4.07 5.08-8.13 10.16-12.12 15.3a94.97 94.97 0 00-4.72 6.74c-.3.47-.51 1.57.7 1.59 2.24.02 4.48-.04 6.73-.1 15.25-.33 30.5-.68 45.75-1.03z"/><path fill="#3A0839" d="M2242.15 762.74c.76-5.93 1.3-11.9 2.33-17.8 1.66-9.57 3.64-19.09 5.5-28.63a31.9 31.9 0 014.59-11.76c5.49-8.27 13.83-11.25 23.41-8.47a37.3 37.3 0 0111.95 6.05c9.8 7.3 19.57 14.66 29.2 22.18a80.19 80.19 0 019.26 8.73c8.74 9.43 7.35 21.6-3.25 29-4.52 3.15-9.5 5.5-14.61 7.5-10.44 4.08-20.91 8.12-31.45 11.95-4.9 1.78-9.9 3.44-15.2 3.71-12.8.66-20.93-6.69-21.45-19.43-.04-1 0-2 0-3-.1 0-.2-.02-.28-.03z"/><path fill="#3B0939" d="M1845.75 700.54c-1.82-.45-4.1-.71-6.14-1.58-7.46-3.17-9.53-11.6-4.48-18.03 2.64-3.35 6.04-5.94 9.45-8.46 11.64-8.6 23.37-17.07 34.96-25.73a781.92 781.92 0 0021.26-16.55c3.08-2.47 6.43-4.7 8.72-8.08.34-.5 1.28-.7 1.99-.86.43-.1.95.11 1.42.23.72.18.7.48.26 1.08-1.32 1.81-2.49 3.72-3.81 5.51-12.11 16.49-24.21 32.98-36.4 49.41A317.14 317.14 0 011861 692.8c-3.27 3.88-7.3 6.8-12.63 7.3-.74.08-1.47.25-2.6.44z"/><path fill="#3C0A3B" d="M1653.24 916.74c8.98 0 17.95-.03 26.93.02 3.31.02 3.71.49 3.75 4 .05 4.49.04 8.98-.03 13.47-.03 1.96-.76 2.74-2.68 2.76-7.48.07-14.96-.05-22.43.11-2.9.06-5.97-.92-8.68.98l-.38 8.17v.75c.09 3.17-.37 4.21-4.57 3.94-1.41-.09-2.38-.9-2.44-2.32-.11-2.74-.03-5.48-.12-8.22-.08-2.52-.72-3.32-2.98-3.3-11.11.08-10.03-1.72-10.07 8.96 0 .99.06 2.02-.2 2.96-.16.62-.74 1.45-1.3 1.6-3.12.87-5.8.5-5.74-3.2.15-9.22.03-18.45.08-27.68.01-2.41.58-2.95 3.18-2.96 9.23-.05 18.46-.02 27.68-.02v-.02z"/><path fill="#3F0E3E" d="M1972.87 926.76c0-6.73-.04-13.46.02-20.2.02-2.73.8-3.33 3.7-3.32 2.47.02 3.1.6 3.25 2.93.2 3.2-.45 6.45.5 9.62 3.5 1.96 7.3.63 10.95.88 3.47.25 6.97.1 10.46.18 1.1.02 1.76.75 1.97 1.82.1.48.09 1 .09 1.49 0 9.22.02 18.45-.02 27.67-.02 2.38-.73 3.13-3.15 3.15-8.23.07-16.45.07-24.68 0-2.28-.01-3.04-.85-3.06-3.28-.06-6.98-.02-13.96-.02-20.94h-.01z"/><path fill="#411141" d="M1894.54 951.01c-5.74 0-11.48.05-17.22-.02-2.3-.03-3.06-.82-3.06-3.24 0-9.48.06-18.96.16-28.44.02-1.92.75-2.46 2.87-2.54 2.66-.11 3.74.48 3.78 2.36.1 5.99.1 11.98.16 17.96.07 6.78.15 6.84 6.5 6.66 3.04-.09 3.43-.43 3.52-3.48.08-2.5 0-4.99.1-7.48.06-1.88.76-2.42 2.9-2.5 2.7-.1 3.82.49 3.9 2.29.13 2.74.06 5.49.15 8.23.07 2 .82 2.8 2.6 2.9a46 46 0 004.5 0c1.86-.1 2.59-.82 2.61-2.86.07-5.99.05-11.98.06-17.96 0-1.25.03-2.5.06-3.74.05-1.52.98-2.2 2.36-2.36.73-.08 1.5-.06 2.24 0 1.37.09 2.41.67 2.42 2.21.06 9.73.1 19.46.1 29.2-.01 1.9-.8 2.72-2.75 2.75-6 .07-11.98.02-17.97.02v.04z"/><path fill="#3E0D3D" d="M1765.26 926.9c0-6.74-.04-13.48.01-20.21.03-2.92.64-3.45 3.5-3.45 2.93 0 3.59.56 3.67 3.36.07 2.5-.01 5 .08 7.49.07 1.8.9 2.58 2.88 2.6 5.74.05 11.48-.01 17.22.05 2.93.04 3.56.63 3.57 3.47.05 9.24.01 18.47.01 27.71 0 1.04-.23 2-1.11 2.62-1.03.72-4 .57-5.04-.12-1-.67-.95-1.7-.95-2.67-.04-5.49-.03-10.98-.03-16.47 0-1.25-.03-2.5 0-3.75.1-3.74-.53-4.33-4.25-4.26-3.24.07-6.49-.02-9.73.06-1.92.05-2.57.73-2.59 2.82-.05 6.98 0 13.97-.06 20.96-.02 3.24-.88 4-3.96 3.89-2.32-.09-3.17-.82-3.18-3.13-.05-6.98-.02-13.97-.02-20.96h-.02z"/><path fill="#3D0C3D" d="M1928.76 934.02c0-4.75-.03-9.5.02-14.25.02-2.1.7-2.97 2.43-2.98 8.5-.04 17-.01 25.5-.02 1.07 0 2.15.35 2.44 1.3.43 1.39.68 3.06-.21 4.29-.46.62-1.77.85-2.7.86-5.74.09-11.5.04-17.24.07-1.22.01-2.6-.1-3.04 1.48-.4 1.46-.5 2.98.25 4.36.52.96 1.55 1.12 2.57 1.12l12.75.02c1.5 0 3-.03 4.5.03 2.98.11 3.69 1.08 3.36 4.33-.14 1.44-.85 2.29-2.3 2.34-2.25.07-4.5.07-6.75.09-4 .02-8-.02-12 .07-1.95.04-2.72 1.24-2.6 3.66.08 1.92.84 2.88 2.6 2.9 5.25.08 10.5.06 15.75.08 1 0 2 .03 3 .07 1.48.06 2.18.9 2.32 2.33.34 3.7-.41 4.79-3.77 4.82-7.75.06-15.5.06-23.25-.01-2.98-.03-3.57-.65-3.62-3.46-.06-4.5-.01-9-.01-13.5z"/><path fill="#3E0C3C" d="M1550.7 936.92c0-3.5.05-7-.02-10.5-.04-2.09-.68-2.78-2.56-2.94-1.5-.12-3-.08-4.5-.18-2.76-.19-3.4-.96-3.2-3.75.15-1.96.78-2.56 2.74-2.79 2.2-.26 4.78.85 6.54-.67 2.12-1.83.93-4.7.98-7.1.27-11.4-1.56-9.53 10.12-9.7 4.75-.06 9.5-.04 14.25.02 2.82.04 3.38.7 3.47 3.62.1 2.9-.5 3.67-3.25 3.71-4.75.07-9.5 0-14.26.06-2.55.04-2.99.5-3.01 3.16-.06 6.8-.61 6.97 6.16 6.87 1.25-.02 2.5-.03 3.75 0 3.28.12 3.83.77 3.68 4.05-.07 1.46-.67 2.37-2.16 2.44-2.5.11-5 .1-7.5.22-3.53.17-3.91.5-3.94 3.9-.06 7-.03 14-.05 21 0 1.07-.39 2.03-1.47 2.34-1.7.48-3.5.75-4.97-.53-.47-.4-.7-1.3-.72-1.98-.07-3.75-.03-7.5-.03-11.25h-.05z"/><path fill="#3C0A3B" d="M1809.71 933.63c0-4.74-.03-9.48.02-14.22.02-1.93.74-2.62 2.77-2.63 8.23-.05 16.46-.06 24.7 0 2.66.01 3.16.74 3.07 3.81-.07 2.33-.37 2.63-3.43 2.66-5.74.06-11.48.02-17.21.04-1.25 0-2.6.08-2.94 1.62-.32 1.46-.46 3.03.4 4.34.35.51 1.25.86 1.93.92 1.73.14 3.48.1 5.23.1 4.24.02 8.48-.03 12.72.04 2.84.04 3.38.7 3.3 3.6-.07 2.46-.58 3.08-3.04 3.1-5.74.08-11.48 0-17.21.08-2.94.04-3.88 1.3-3.46 4.3.2 1.44 1.04 2.23 2.45 2.3 1.99.08 3.99.07 5.98.08 4.24.01 8.48-.02 12.72.05 1.9.03 2.48.77 2.56 2.81.14 3.46-.43 4.3-3.45 4.34-7.98.07-15.96.06-23.94 0-2.4 0-3.12-.75-3.16-3.12-.06-4.74-.02-9.48-.02-14.22h.01z"/><path fill="#3E0D3D" d="M1608.97 933.61c0 4.98.03 9.95-.02 14.92-.01 1.43-.92 2.22-2.33 2.36-.74.08-1.49.16-2.23.12-6.17-.32-12.39.75-18.53-.59-2.11-6-.64-12.19-.96-18.28-.23-4.46-.02-8.95.07-13.42.02-1.09.73-1.86 1.87-1.86 6.7-.03 13.4-.06 20.11.02 1.49.02 2.02 1.2 2.03 2.57v14.16z"/><path fill="#3F0D3E" d="M1731.14 903.25h.51c2.56.08 3.24.62 3.31 2.92.08 2.74-.01 5.49.1 8.22.05 1.42.95 2.25 2.4 2.27 3.99.06 7.98.03 11.96.14 1.91.06 2.42.99 2.34 3.77-.07 2.12-.5 2.63-2.65 2.67a207 207 0 01-9.71.02c-4.2-.1-4.42.76-4.42 4.08.01 5.23 0 10.47-.02 15.7 0 1.74.04 3.49-.04 5.23-.08 1.82-.9 2.55-2.84 2.7-3.19.27-4.26-.54-4.28-3.5-.06-6.73 0-13.45-.05-20.18-.03-3.35-.4-3.65-3.94-3.9-1-.06-2-.01-2.99-.08-3.08-.22-3.78-1.15-3.36-4.3.15-1.1.63-1.94 1.74-2.05 1.73-.18 3.47-.15 5.21-.25 2.89-.16 3.26-.54 3.34-3.64.06-2.25-.02-4.49.04-6.73.07-2.4.74-3.03 3.35-3.09z"/><path fill="#451947" d="M1469.53 936.54c-.01.21 0 1.22-.13 2.2-.15 1.08-.8 1.85-1.93 1.9-2 .1-4 .15-5.99.08-1.82-.06-2.53-.85-2.55-2.92-.08-8.09-.75-7.63 6.88-7.57 3.31.03 3.64.46 3.72 4.03v2.28z"/><path fill="#4B204D" d="M2084.45 930.18c.47.04 1.74.01 2.91.32.6.16 1.04.93 1.5 1.46.13.16.09.48.1.73.26 8.6.33 8.3-8 8.05-1.72-.05-2.5-1.01-2.62-2.92-.05-.75-.04-1.5-.04-2.25-.01-5.3.07-5.39 6.15-5.4z"/><path fill="#FFF" d="M1598.06 739.78c-.3.64-.58 1.34-.96 1.97a91.63 91.63 0 01-10.77 14.34c-4.73 5.16-9.78 9.99-15.18 14.43-13.49 11.1-27.4 21.64-42.15 31.04-8.88 5.65-18.21 10.3-28.52 12.75-.49.12-.96.28-1.45.38-1.45.28-2.27-.67-1.82-2.15 2.33-7.69 5.66-14.9 10.45-21.39a245.9 245.9 0 0116.5-20.32c9.96-10.86 20.35-21.28 31.54-30.87a50.56 50.56 0 0115.3-9.2c3.1-1.16 6.3-1.48 9.5-1.89 2.5-.3 4.96.34 7.2 1.56 3.75 2.06 6.8 5.03 9.81 8.01.3.3.36.85.55 1.34zM1964.8 762.2c.13 1.92-.77 3.74-1.64 5.52-1.56 3.17-3.8 5.85-6.18 8.44-11.38 12.44-24.7 22.57-38.5 32.06-8.86 6.09-17.88 11.92-27.76 16.27-5.95 2.62-12 4.96-18.5 5.8-1.56.2-2.52-.77-1.96-2.13 1.62-3.91 3.1-7.92 5.15-11.62a90.93 90.93 0 017.76-11.9c12.45-16 25.97-31.05 40.99-44.7a76.19 76.19 0 018.9-6.84c7.77-5.21 19.3-5.06 26.89.2 3.03 2.1 5.05 4.81 4.85 8.9z"/><path fill="#F24246" d="M2260.2 755.16c-.06-2.06 1.01-5.65 1.76-9.3 1.48-7.29 2.87-14.59 4.35-21.87.3-1.44.61-2.94 1.26-4.24 2.37-4.76 7.22-6.4 11.95-3.96a48.87 48.87 0 016.25 4.04 2331.7 2331.7 0 0121.59 15.95 18.18 18.18 0 013.81 3.51c3.47 4.67 2.26 11.59-3.2 13.9-3.66 1.55-7.32 3.13-11.02 4.58-8.09 3.16-16.16 6.4-24.33 9.34-7 2.52-12.35-1.38-12.41-8.73v-3.22z"/><path fill="#F2F4F6" d="M1653.1 930.49c-7.26 0-14.5.01-21.76-.02-1.02 0-2.04-.42-2.24-1.54-.3-1.69-.7-3.47.52-4.99.72-.88 1.82-.7 2.8-.7 9.74-.02 19.49-.01 29.24-.01 4 0 8-.04 12 .02 2.72.05 3.23.72 3.17 3.76 0 .25 0 .5-.02.75-.15 2.03-.71 2.68-2.72 2.72-4 .07-8 .04-12 .04h-9v-.03z"/><path fill="#FBFBFC" d="M1996.87 934.51c-.3 2.34 1.33 6.24-.8 8.53-2.17 2.35-6.11.73-9.27.97-1.49.1-2.99.02-4.48-.03-1.4-.04-2.4-.71-2.41-2.19-.05-5.46-.05-10.93 0-16.4.02-1.52 1.13-2.08 2.5-2.09 3.98-.01 7.95-.04 11.93.04 1.86.03 2.45.73 2.51 2.88.08 2.49.02 4.97.02 8.3z"/><path fill="#F5F4F6" d="M1602.08 933.74v3c0 8.21.53 7.33-7.96 7.28-1.38 0-2.45-.63-2.47-2.17-.06-5.25-.1-10.5-.04-15.74.02-1.98.83-2.75 2.7-2.82 1.74-.07 3.5-.02 5.24 0 1.45.02 2.4.76 2.44 2.21.08 2.74.02 5.5.02 8.24h.07z"/><path fill="#3C0939" d="M2270.96 753.15c.59-3.66.74-7.46 1.86-10.95 1.62-5.05.6-10.82 4.22-15.29 4.96 1.9 8.45 5.94 12.77 8.77 2.9 1.9 5.54 4.2 8.25 6.35 2.67 2.13 2.48 3.66-.78 4.98-7.57 3.09-15.18 6.08-22.8 9.05-2.4.94-3.7-.19-3.52-2.9z"/></svg>